<?xml version="1.0" standalone="no"?>
<!DOCTYPE svg PUBLIC "-//W3C//DTD SVG 20010904//EN"
 "http://www.w3.org/TR/2001/REC-SVG-20010904/DTD/svg10.dtd">
<svg version="1.0" xmlns="http://www.w3.org/2000/svg"
 width="192.000000pt" height="192.000000pt" viewBox="0 0 192.000000 192.000000"
 preserveAspectRatio="xMidYMid meet">
<metadata>
Created by potrace 1.11, written by Peter Selinger 2001-2013
</metadata>
<g transform="translate(0.000000,192.000000) scale(0.100000,-0.100000)"
fill="#000000" stroke="none">
<path d="M0 960 l0 -960 960 0 960 0 0 960 0 960 -960 0 -960 0 0 -960z m820
-2 l147 -378 -78 0 -77 0 -27 70 -27 70 -176 -2 -177 -3 -24 -67 -25 -68 -78
0 -78 0 23 59 c12 32 78 203 147 380 l125 321 89 -2 88 -3 148 -377z m717 367
c80 -34 117 -97 111 -190 -4 -68 -30 -114 -81 -145 l-29 -18 30 -16 c54 -28
102 -111 102 -176 0 -40 -27 -111 -53 -139 -50 -55 -82 -61 -329 -61 l-228 0
0 380 0 380 220 0 c176 0 228 -3 257 -15z"/>
<path d="M576 1184 c-48 -121 -126 -338 -123 -341 2 -2 63 -2 135 -1 l130 3
-64 170 c-35 94 -65 174 -67 179 -2 6 -7 1 -11 -10z"/>
<path d="M1197 1223 c-4 -3 -7 -48 -7 -100 l0 -93 129 0 c125 0 131 1 160 26
26 21 31 33 31 69 0 52 -33 90 -88 99 -50 8 -217 8 -225 -1z"/>
<path d="M1192 803 l3 -108 130 0 c151 0 177 10 196 73 9 31 8 45 -5 75 -23
55 -59 67 -206 67 l-121 0 3 -107z"/>
</g>
</svg>
